<svg width="32" height="32" viewBox="0 0 32 32" fill="none" xmlns="http://www.w3.org/2000/svg">
<g id="Style=White, Social=Dribbble">
<path id="BG" opacity="0.1" fill-rule="evenodd" clip-rule="evenodd" d="M0 16C0 7.16344 7.16344 0 16 0C24.8366 0 32 7.16344 32 16C32 24.8366 24.8366 32 16 32C7.16344 32 0 24.8366 0 16Z" fill="white"/>
<path id="Path" fill-rule="evenodd" clip-rule="evenodd" d="M24.5333 15.9882C24.5333 16.5653 24.4746 17.1415 24.3592 17.7033C24.2467 18.2517 24.08 18.7901 23.8617 19.3048C23.6483 19.8104 23.3837 20.2976 23.0745 20.7519C22.77 21.2034 22.4191 21.627 22.0337 22.0131C21.6474 22.3976 21.2224 22.7475 20.7711 23.0533C20.3152 23.3604 19.8273 23.6246 19.3215 23.8389C18.806 24.0561 18.2664 24.2225 17.7184 24.3349C17.1559 24.4506 16.5776 24.5096 15.9996 24.5096C15.4213 24.5096 14.8429 24.4506 14.2812 24.3349C13.7324 24.2225 13.1928 24.0561 12.6778 23.8389C12.1719 23.6246 11.6836 23.3604 11.2277 23.0533C10.7764 22.7475 10.3514 22.3976 9.96599 22.0131C9.58015 21.627 9.22928 21.2034 8.92427 20.7519C8.61675 20.2976 8.35172 19.8104 8.13755 19.3048C7.91918 18.7901 7.75211 18.2517 7.63919 17.7033C7.52503 17.1415 7.46667 16.5653 7.46667 15.9882C7.46667 15.4106 7.52499 14.8331 7.63922 14.2726C7.75215 13.7242 7.91922 13.1849 8.13759 12.6711C8.35175 12.1651 8.61678 11.6775 8.9243 11.2231C9.22931 10.7713 9.58018 10.3485 9.96602 9.96193C10.3515 9.57745 10.7765 9.22839 11.2278 8.92298C11.6836 8.61464 12.172 8.35046 12.6778 8.13574C13.1929 7.91808 13.7324 7.75125 14.2812 7.63976C14.8429 7.52493 15.4213 7.46666 15.9997 7.46666C16.5776 7.46666 17.1559 7.52493 17.7185 7.63976C18.2664 7.75129 18.806 7.91811 19.3215 8.13574C19.8273 8.35042 20.3153 8.61464 20.7711 8.92298C21.2224 9.22839 21.6475 9.57745 22.0337 9.96193C22.4191 10.3485 22.77 10.7713 23.0746 11.2231C23.3837 11.6775 23.6483 12.1652 23.8617 12.6711C24.08 13.1849 24.2467 13.7242 24.3592 14.2726C24.4746 14.8331 24.5333 15.4106 24.5333 15.9882ZM12.8903 9.40604C10.8581 10.3643 9.34131 12.2342 8.86836 14.4877C9.06048 14.4894 12.0973 14.5277 15.5962 13.5994C14.3349 11.3616 12.9874 9.53548 12.8903 9.40604ZM16.2 14.7199C12.4477 15.8417 8.84711 15.761 8.71795 15.756C8.71585 15.8342 8.71211 15.9099 8.71211 15.9882C8.71211 17.8576 9.41839 19.5619 10.5793 20.8506C10.5768 20.8468 12.5711 17.3138 16.5038 16.0439C16.5988 16.0123 16.6955 15.984 16.7913 15.9565C16.6084 15.543 16.4087 15.1285 16.2 14.7199ZM20.8124 10.5266C19.5293 9.39688 17.8447 8.71162 15.9996 8.71162C15.4075 8.71162 14.8329 8.7832 14.2824 8.9155C14.3916 9.06199 15.7604 10.8753 17.0067 13.1604C19.7565 12.131 20.7944 10.5532 20.8124 10.5266ZM17.288 17.1624C17.2718 17.1677 17.2556 17.1724 17.2397 17.1782C12.94 18.675 11.5358 21.6914 11.5206 21.7243C12.7578 22.6851 14.3096 23.2647 15.9996 23.2647C17.0088 23.2647 17.9701 23.0595 18.8448 22.688C18.7368 22.0522 18.3135 19.8237 17.288 17.1624ZM20.0719 22.0231C21.7082 20.9205 22.8703 19.1696 23.1945 17.1415C23.0445 17.0932 21.0057 16.4487 18.6535 16.8253C19.6093 19.4483 19.9977 21.5845 20.0719 22.0231ZM17.5676 14.2447C17.7368 14.5918 17.9006 14.945 18.0518 15.2999C18.1056 15.4273 18.1581 15.5521 18.2093 15.6769C20.7128 15.3623 23.1792 15.8916 23.2846 15.9132C23.2679 14.1881 22.65 12.6049 21.6275 11.3654C21.6137 11.3849 20.4449 13.0713 17.5676 14.2447Z" fill="white"/>
</g>
</svg>
