<svg width="32" height="32" viewBox="0 0 32 32" fill="none" xmlns="http://www.w3.org/2000/svg">
<g id="Style=White, Social=Instagram">
<path id="BG" opacity="0.1" fill-rule="evenodd" clip-rule="evenodd" d="M0 16C0 7.16344 7.16344 0 16 0C24.8366 0 32 7.16344 32 16C32 24.8366 24.8366 32 16 32C7.16344 32 0 24.8366 0 16Z" fill="white"/>
<path id="Path" fill-rule="evenodd" clip-rule="evenodd" d="M16.0008 7.46666C13.6833 7.46666 13.3924 7.47679 12.4822 7.51822C11.5737 7.55982 10.9536 7.70364 10.4111 7.91466C9.84981 8.13262 9.37372 8.42418 8.8994 8.89867C8.42473 9.37299 8.13317 9.84908 7.9145 10.4102C7.70294 10.9529 7.55894 11.5732 7.51805 12.4813C7.47734 13.3915 7.46667 13.6825 7.46667 16.0001C7.46667 18.3176 7.47699 18.6076 7.51823 19.5178C7.56001 20.4263 7.70383 21.0464 7.91468 21.5889C8.13282 22.1502 8.42437 22.6263 8.89887 23.1006C9.37301 23.5753 9.8491 23.8675 10.41 24.0855C10.9529 24.2965 11.5732 24.4403 12.4815 24.4819C13.3917 24.5234 13.6824 24.5335 15.9997 24.5335C18.3175 24.5335 18.6074 24.5234 19.5176 24.4819C20.4261 24.4403 21.0469 24.2965 21.5898 24.0855C22.1509 23.8675 22.6263 23.5753 23.1004 23.1006C23.5751 22.6263 23.8667 22.1502 24.0853 21.5891C24.2951 21.0464 24.4391 20.4261 24.4818 19.518C24.5227 18.6078 24.5333 18.3176 24.5333 16.0001C24.5333 13.6825 24.5227 13.3917 24.4818 12.4815C24.4391 11.573 24.2951 10.9529 24.0853 10.4103C23.8667 9.84908 23.5751 9.37299 23.1004 8.89867C22.6258 8.424 22.1511 8.13244 21.5893 7.91466C21.0453 7.70364 20.4249 7.55982 19.5164 7.51822C18.6062 7.47679 18.3164 7.46666 15.9981 7.46666H16.0008ZM15.2353 9.00443C15.4625 9.00407 15.716 9.00443 16.0008 9.00443C18.2792 9.00443 18.5492 9.01261 19.449 9.0535C20.281 9.09154 20.7326 9.23056 21.0334 9.34737C21.4316 9.50203 21.7155 9.68693 22.014 9.9856C22.3127 10.2843 22.4976 10.5687 22.6526 10.9669C22.7694 11.2674 22.9086 11.7189 22.9464 12.551C22.9873 13.4505 22.9962 13.7207 22.9962 15.9981C22.9962 18.2755 22.9873 18.5457 22.9464 19.4452C22.9084 20.2773 22.7694 20.7288 22.6526 21.0293C22.4979 21.4275 22.3127 21.7111 22.014 22.0095C21.7153 22.3082 21.4318 22.4931 21.0334 22.6478C20.7329 22.7651 20.281 22.9038 19.449 22.9418C18.5494 22.9827 18.2792 22.9916 16.0008 22.9916C13.7222 22.9916 13.4521 22.9827 12.5526 22.9418C11.7205 22.9034 11.269 22.7644 10.968 22.6476C10.5698 22.4929 10.2853 22.308 9.98666 22.0094C9.68799 21.7107 9.5031 21.427 9.34808 21.0286C9.23128 20.7281 9.09208 20.2765 9.05421 19.4445C9.01332 18.545 9.00514 18.2747 9.00514 15.996C9.00514 13.7172 9.01332 13.4484 9.05421 12.5488C9.09226 11.7168 9.23128 11.2653 9.34808 10.9644C9.50275 10.5662 9.68799 10.2818 9.98666 9.98311C10.2853 9.68444 10.5698 9.49955 10.968 9.34452C11.2688 9.22719 11.7205 9.08852 12.5526 9.0503C13.3398 9.01474 13.6448 9.00407 15.2353 9.0023V9.00443ZM20.5558 10.4213C19.9905 10.4213 19.5318 10.8795 19.5318 11.445C19.5318 12.0103 19.9905 12.469 20.5558 12.469C21.1212 12.469 21.5799 12.0103 21.5799 11.445C21.5799 10.8797 21.1212 10.4213 20.5558 10.4213ZM16.0008 11.6178C13.5807 11.6178 11.6186 13.5799 11.6186 16.0001C11.6186 18.4202 13.5807 20.3814 16.0008 20.3814C18.4209 20.3814 20.3824 18.4202 20.3824 16.0001C20.3824 13.5799 18.4209 11.6178 16.0008 11.6178ZM16.0008 13.1556C17.5717 13.1556 18.8453 14.429 18.8453 16.0001C18.8453 17.5709 17.5717 18.8445 16.0008 18.8445C14.4298 18.8445 13.1563 17.5709 13.1563 16.0001C13.1563 14.429 14.4298 13.1556 16.0008 13.1556Z" fill="white"/>
</g>
</svg>
